<svg width="1512" height="10790" viewBox="0 0 1512 10790" fill="none" xmlns="http://www.w3.org/2000/svg">
<g clip-path="url(#clip0_819_212)">
<path fill-rule="evenodd" clip-rule="evenodd" d="M502.652 7273.69C512.997 7223.89 507.82 7162.44 565.967 7136.97C624.04 7111.53 716.109 7149.04 791.13 7147.32C866.128 7145.61 927.291 7112.52 1004.77 7126.94C1091.45 7143.06 1191.05 7174.89 1238.76 7230.59C1286.54 7286.37 1262.39 7348.71 1239.74 7401.25C1221.97 7442.48 1206.89 7475.21 1185.26 7515.07C1158.12 7565.05 1169.36 7633.11 1100.94 7656.9C1035.46 7679.67 948.732 7598.49 866.933 7583.49C787.455 7568.91 708.456 7604.28 635.758 7571.56C563.011 7538.82 531.152 7475.78 506.876 7421.45C484.005 7370.27 492.665 7321.78 502.652 7273.69Z" fill="url(#paint0_linear_819_212)"/>
<path opacity="0.85" fill-rule="evenodd" clip-rule="evenodd" d="M1032.67 5861.02C1030.09 5790.14 1125.28 5754.77 1173.91 5698.09C1217.13 5647.71 1234.58 5578.99 1297.72 5552.06C1376.52 5518.44 1482.72 5487.67 1545.44 5539.59C1608 5591.36 1549.27 5687.62 1555.89 5765.73C1561.41 5830.86 1621.99 5898.14 1580.46 5952.64C1538.93 6007.15 1449.72 5987.32 1378.93 5997.99C1312.34 6008.02 1246.25 6036.3 1185.32 6012.2C1113.54 5983.81 1035.3 5933.46 1032.67 5861.02Z" fill="url(#paint1_radial_819_212)"/>
<path opacity="0.8" fill-rule="evenodd" clip-rule="evenodd" d="M58.3977 4967.63C154.798 4988 184.907 5053.15 251.29 5098.85C307.776 5137.73 410.939 5160.7 412.969 5211.72C415.012 5263.04 314.364 5289.46 260.489 5329.98C191.487 5381.87 165.777 5459 58.3977 5478.35C-70.44 5501.57 -229.065 5491.49 -323.609 5435.26C-417.83 5379.21 -384.951 5290.28 -389.871 5211.72C-395.109 5128.08 -457.377 5028.19 -352.671 4971.18C-248.38 4914.39 -75.5879 4939.3 58.3977 4967.63Z" fill="url(#paint2_linear_819_212)"/>
<path opacity="0.8" fill-rule="evenodd" clip-rule="evenodd" d="M121.169 638.573C179.283 648.439 211.15 702.301 249.596 746.967C291.256 795.367 362.005 838.809 346.928 900.856C331.895 962.722 246.119 962.119 190.001 992.224C127.554 1025.72 76.3443 1104.28 9.02867 1082.12C-61.1979 1059.01 -78.6933 970.753 -94.5498 898.565C-110.182 827.397 -123.292 747.645 -76.7595 691.562C-30.8845 636.272 50.3239 626.545 121.169 638.573Z" fill="url(#paint3_linear_819_212)"/>
<path opacity="0.96" fill-rule="evenodd" clip-rule="evenodd" d="M1465.29 905.033C1383.54 915.917 1310.64 842.802 1234.46 787.752C1151.91 728.101 1034.17 690.049 1017.96 581.777C1001.79 473.818 1114.38 434.969 1170.37 359.772C1232.67 276.095 1254.18 124.098 1355.09 129.002C1460.37 134.118 1534.39 270.04 1596.95 380.502C1658.63 489.402 1721.98 613.484 1693.58 726.631C1665.58 838.179 1564.96 891.765 1465.29 905.033Z" fill="url(#paint4_linear_819_212)"/>
<path opacity="0.8" fill-rule="evenodd" clip-rule="evenodd" d="M1040.18 1838.02C1092.81 1845.48 1129.18 1876.96 1175.02 1899.53C1250.77 1936.83 1388.41 1938.02 1390.97 2010.75C1393.5 2082.83 1250.3 2082.52 1183.07 2128.61C1128.12 2166.27 1109.13 2235.76 1040.18 2251.21C955.579 2270.18 848.041 2271.24 790.693 2216.54C734.139 2162.6 776.668 2081.44 788.078 2010.75C797.245 1953.96 795.89 1889.93 849.32 1853.32C900.436 1818.3 974.696 1828.73 1040.18 1838.02Z" fill="url(#paint5_linear_819_212)"/>
<path fill-rule="evenodd" clip-rule="evenodd" d="M156.815 2927.3C233.455 2916.14 313.552 2946.75 374.158 2994.97C432.226 3041.17 462.274 3113.34 480.922 3185.17C497.486 3248.97 492.597 3315.61 473.804 3378.79C456.83 3435.85 415.74 3478.95 379.489 3526.18C340.766 3576.62 313.005 3640.7 254.191 3664.88C193.603 3689.79 124.813 3674.75 61.8181 3656.77C-1.54654 3638.69 -56.6255 3604.32 -106.99 3561.82C-165.057 3512.83 -251.847 3467.97 -252 3391.99C-252.158 3313.6 -151.509 3277.39 -107.693 3212.39C-73.3685 3161.48 -65.1158 3097.84 -23.3524 3052.83C27.4611 2998.06 82.8884 2938.05 156.815 2927.3Z" fill="url(#paint6_radial_819_212)"/>
<path opacity="0.7" fill-rule="evenodd" clip-rule="evenodd" d="M1395.17 2044.9C1452.6 2056.15 1480.04 2101.79 1522.78 2132.1C1563.3 2160.83 1619.68 2182.4 1638.77 2217.64C1658.78 2254.58 1646.41 2291.31 1626.2 2323.03C1605.56 2355.41 1576.91 2388.63 1523.94 2397.82C1472.66 2406.71 1414.3 2382.47 1358.29 2369.51C1308.11 2357.91 1258.41 2348.47 1214.69 2326.29C1164.07 2300.61 1102.42 2272.22 1090.91 2233.86C1079.42 2195.59 1130.4 2170.87 1159.36 2141.95C1184.08 2117.27 1208.7 2093.8 1246.98 2078.04C1291.13 2059.87 1337.67 2033.62 1395.17 2044.9Z" fill="url(#paint7_radial_819_212)"/>
<path opacity="0.85" fill-rule="evenodd" clip-rule="evenodd" d="M163.671 -144.056C153.112 -96.5015 215.226 -59.5256 242.183 -14.5342C266.143 25.4541 269.836 74.2973 310.606 101.177C361.488 134.723 431.856 170.103 482.081 143.63C532.173 117.226 503.052 44.0972 517.332 -7.78855C529.239 -51.0497 579.864 -88.1993 557.595 -130.744C535.325 -173.289 470.563 -172.141 422.441 -189.075C377.173 -205.005 334.51 -233.195 288.973 -225.273C235.333 -215.941 174.462 -192.66 163.671 -144.056Z" fill="url(#paint8_radial_819_212)"/>
<path opacity="0.8" fill-rule="evenodd" clip-rule="evenodd" d="M1539.4 4179.38C1603.56 4210.8 1651.06 4326.71 1623.2 4405.37C1594.67 4485.92 1478.57 4496.22 1400.89 4542.2C1355.04 4569.33 1315.68 4601.53 1266.86 4616.27C1196.37 4637.56 1111.49 4682.24 1064.17 4643.86C1016.08 4604.85 1048.48 4518.49 1060.11 4448.6C1071.88 4377.94 866.968 4339.59 1063.55 4202.19C1128.66 4156.67 1263.71 4225.86 1334.09 4225.06C1395.01 4224.36 1489.74 4155.06 1539.4 4179.38Z" fill="url(#paint9_linear_819_212)"/>
<path opacity="0.85" fill-rule="evenodd" clip-rule="evenodd" d="M-527.531 8596.72C-539.745 8542.14 -494.509 8478.95 -471.673 8417.96C-448.038 8354.84 -458.441 8284.7 -391.094 8232.32C-323.709 8179.91 -224.628 8191.26 -140.732 8160.57C-47.3022 8126.4 34.0861 8050.42 127.255 8042.71C224.823 8034.64 309.367 8067.95 355.46 8119.51C400.537 8169.93 393.056 8245.01 372.24 8316.73C353.818 8380.2 297.601 8439.96 245 8500.08C195.505 8556.66 145.625 8612.5 74.8517 8656.67C-1.57611 8704.37 -86.6925 8749 -173.678 8761.37C-262.203 8773.97 -339.58 8754.19 -403.033 8724.66C-464.757 8695.94 -514.687 8654.11 -527.531 8596.72Z" fill="url(#paint10_radial_819_212)"/>
<path opacity="0.85" fill-rule="evenodd" clip-rule="evenodd" d="M464.372 9921.22C521.218 9931.04 541.721 10013.1 591.408 10045.3C644.648 10079.9 728.458 10056.4 761.683 10114.2C794.114 10170.5 759.05 10245.1 743.594 10309.8C729.73 10367.8 711.534 10423.9 676.694 10469.8C641.557 10516 598.935 10562 545.108 10570.9C492.943 10579.6 448.917 10531.9 398.083 10516.2C346.15 10500.2 285.955 10514.9 243.462 10478C198.338 10438.9 175.976 10375.4 163.98 10313.2C151.421 10248 146.772 10177 173.99 10117.7C200.819 10059.2 258.713 10030.7 309.167 9996.57C358.391 9963.27 407.437 9911.39 464.372 9921.22Z" fill="url(#paint11_radial_819_212)"/>
<path fill-rule="evenodd" clip-rule="evenodd" d="M906.214 9608.09C972.781 9606.18 1030.21 9634.14 1091.66 9651.26C1161.8 9670.82 1247.61 9675.84 1293.65 9716.09C1340.39 9756.94 1335.78 9813.47 1335.94 9864.79C1336.1 9916.2 1324.29 9966.4 1294.59 10013.9C1262 10066 1229.52 10124.2 1155.99 10152.4C1082.47 10180.6 988.853 10175.5 906.214 10162.7C832.186 10151.2 783.345 10107.2 715.815 10084C644.081 10059.4 549.475 10062.6 496.744 10022C442.441 9980.08 424.299 9919.87 431.508 9864.79C438.502 9811.36 479.551 9761.04 535.917 9722.67C586.735 9688.07 663.871 9682.09 729.819 9661.68C789.445 9643.23 840.508 9609.99 906.214 9608.09Z" fill="url(#paint12_linear_819_212)"/>
</g>
<defs>
<linearGradient id="paint0_linear_819_212" x1="498.518" y1="7262.71" x2="1254.57" y2="7293.18" gradientUnits="userSpaceOnUse">
<stop offset="0.463141" stop-color="#CFEAF2"/>
<stop offset="0.98556" stop-color="#FFE6F2"/>
</linearGradient>
<radialGradient id="paint1_radial_819_212" cx="0" cy="0" r="1" gradientUnits="userSpaceOnUse" gradientTransform="translate(1312.34 5779.82) rotate(-29.08) scale(442.19 375.559)">
<stop offset="0.236979" stop-color="#FBF1FA" stop-opacity="0.97"/>
<stop offset="0.783854" stop-color="#E4F6FC" stop-opacity="0.99"/>
</radialGradient>
<linearGradient id="paint2_linear_819_212" x1="3.05176e-05" y1="4937" x2="59.055" y2="5497.17" gradientUnits="userSpaceOnUse">
<stop offset="0.463141" stop-color="#CFEAF2"/>
<stop offset="0.98556" stop-color="#FFE6F2"/>
</linearGradient>
<linearGradient id="paint3_linear_819_212" x1="120" y1="634" x2="190.248" y2="1086.03" gradientUnits="userSpaceOnUse">
<stop offset="0.463141" stop-color="#CFEAF2"/>
<stop offset="0.98556" stop-color="#FFE6F2"/>
</linearGradient>
<linearGradient id="paint4_linear_819_212" x1="1469.47" y1="911.954" x2="1069.84" y2="233.799" gradientUnits="userSpaceOnUse">
<stop offset="0.463141" stop-color="#CFEAF2"/>
<stop offset="0.98556" stop-color="#FFE6F2"/>
</linearGradient>
<linearGradient id="paint5_linear_819_212" x1="1076.5" y1="1829" x2="1124.23" y2="2268.33" gradientUnits="userSpaceOnUse">
<stop offset="0.463141" stop-color="#CFEAF2"/>
<stop offset="0.98556" stop-color="#FFE6F2"/>
</linearGradient>
<radialGradient id="paint6_radial_819_212" cx="0" cy="0" r="1" gradientUnits="userSpaceOnUse" gradientTransform="translate(119.5 3301.5) rotate(68.0391) scale(584.598 565.528)">
<stop offset="0.236979" stop-color="#FBF1FA" stop-opacity="0.97"/>
<stop offset="0.783854" stop-color="#E4F6FC" stop-opacity="0.99"/>
</radialGradient>
<radialGradient id="paint7_radial_819_212" cx="0" cy="0" r="1" gradientUnits="userSpaceOnUse" gradientTransform="translate(1372.59 2210.61) rotate(63.1603) scale(300.344 369.485)">
<stop offset="0.236979" stop-color="#FBF1FA" stop-opacity="0.97"/>
<stop offset="0.783854" stop-color="#E4F6FC" stop-opacity="0.99"/>
</radialGradient>
<radialGradient id="paint8_radial_819_212" cx="0" cy="0" r="1" gradientUnits="userSpaceOnUse" gradientTransform="translate(348.97 -50.7642) rotate(39.1824) scale(313.937 258.701)">
<stop offset="0.236979" stop-color="#FBF1FA" stop-opacity="0.97"/>
<stop offset="0.783854" stop-color="#E4F6FC" stop-opacity="0.99"/>
</radialGradient>
<linearGradient id="paint9_linear_819_212" x1="1521.27" y1="4147.83" x2="1117.34" y2="4690.09" gradientUnits="userSpaceOnUse">
<stop offset="0.463141" stop-color="#CFEAF2"/>
<stop offset="0.98556" stop-color="#FFE6F2"/>
</linearGradient>
<radialGradient id="paint10_radial_819_212" cx="0" cy="0" r="1" gradientUnits="userSpaceOnUse" gradientTransform="translate(-62.2168 8409.03) rotate(-36.1653) scale(745.971 471.958)">
<stop offset="0.236979" stop-color="#FBF1FA" stop-opacity="0.97"/>
<stop offset="0.783854" stop-color="#E4F6FC" stop-opacity="0.99"/>
</radialGradient>
<radialGradient id="paint11_radial_819_212" cx="0" cy="0" r="1" gradientUnits="userSpaceOnUse" gradientTransform="translate(464.5 10246) rotate(68.7325) scale(503.764 474.941)">
<stop offset="0.236979" stop-color="#FBF1FA" stop-opacity="0.97"/>
<stop offset="0.783854" stop-color="#E4F6FC" stop-opacity="0.99"/>
</radialGradient>
<linearGradient id="paint12_linear_819_212" x1="883" y1="9608" x2="939.284" y2="10181.2" gradientUnits="userSpaceOnUse">
<stop offset="0.463141" stop-color="#CFEAF2"/>
<stop offset="0.98556" stop-color="#FFE6F2"/>
</linearGradient>
<clipPath id="clip0_819_212">
<rect width="1512" height="10790" fill="white"/>
</clipPath>
</defs>
</svg>
